<svg xmlns="http://www.w3.org/2000/svg" width="390" height="780" viewBox="0 0 390 780"><defs><pattern id="dots" width="20" height="20" patternUnits="userSpaceOnUse"><circle cx="1" cy="1" r="1" fill="#384355"/></pattern><marker id="arrow" markerWidth="8" markerHeight="8" refX="7" refY="4" orient="auto"><path d="M0 0L8 4L0 8" fill="#aab8cc"/></marker></defs><rect width="390" height="780" fill="#171f2c"/><rect width="390" height="780" fill="url(#dots)"/>
<g fill="none" stroke="#aab8cc" stroke-width="2.2" marker-end="url(#arrow)"><path d="M145 105C185 105 165 200 172 230"/><path d="M245 105C205 105 225 200 218 230"/><path d="M145 280C18 300 12 450 45 470"/><path d="M145 470C176 440 214 440 245 470"/><path d="M345 470C395 520 230 570 145 660"/><path d="M145 660C176 632 214 632 245 660"/></g>
<g fill="white" stroke="#97a8c1" stroke-width="1.6"><rect x="45" y="55" width="100" height="100" rx="18"/><rect x="245" y="55" width="100" height="100" rx="18"/><rect x="145" y="230" width="100" height="100" rx="18"/><rect x="45" y="420" width="100" height="100" rx="18"/><rect x="245" y="420" width="100" height="100" rx="18"/><rect x="45" y="610" width="100" height="100" rx="18"/><rect x="245" y="610" width="100" height="100" rx="18"/></g>
<g fill="none" stroke="#496ac7" stroke-width="3.8" stroke-linejoin="round" stroke-linecap="round"><rect x="73" y="80" width="44" height="49" rx="3"/><path d="M81 93H108M81 105H108M81 117H101"/><path d="M274 93L295 79L316 93V118L295 132L274 118ZM274 93L295 106L316 93M295 106V132"/><circle cx="195" cy="261" r="11"/><path d="M174 299V292Q174 278 195 278Q216 278 216 292V299M219 294L226 301L239 286"/><path d="M73 447H116V490H73ZM85 447V490M103 447V490M73 462H116M73 477H116"/><path d="M271 459L279 467L293 451M299 459H318M271 482L279 490L293 474M299 482H318"/><path d="M70 641H120M70 656H107M83 672H119M70 634V683"/><path d="M276 633H305L315 643V686H276ZM304 633V644H315M284 657H307M284 668H307M284 678H301"/></g>
<g font-family="Segoe UI,Arial,sans-serif" font-size="18" fill="#d2dcec" text-anchor="middle"><text x="95" y="183">Form</text><text x="295" y="183">Qwen</text><text x="195" y="358">Confirm</text><text x="95" y="548">Planner</text><text x="295" y="548">Verifier</text><text x="95" y="738">Gantt</text><text x="295" y="738">Receipt</text></g></svg>
